<svg width="253" height="232" viewBox="0 0 253 232" fill="none" xmlns="http://www.w3.org/2000/svg">
<g clip-path="url(#clip0_109_416)">
<path d="M225.177 218.429C225.268 222.735 224.673 227.028 223.415 231.147C223.371 231.297 223.318 231.446 223.265 231.596H197.32C197.691 229.772 198.28 227.999 199.074 226.315C201.233 221.738 204.758 217.822 208.239 213.931C213.033 208.571 217.713 203.255 218.453 196.284C220.354 199.178 221.87 202.305 222.965 205.587C221.625 206.084 220.394 206.837 219.343 207.805C219.052 208.078 218.744 208.474 218.894 208.853C219.035 209.17 219.423 209.275 219.766 209.346C220.595 209.504 221.423 209.663 222.252 209.812C222.904 209.944 223.565 210.067 224.226 210.191C224.807 212.9 225.125 215.659 225.177 218.429Z" fill="#F2F2F2"/>
<path d="M246.972 215.577C242.812 218.103 240.168 222.011 238.009 226.385C236.13 226.813 234.396 227.723 232.977 229.026C232.677 229.299 232.369 229.695 232.527 230.073C232.66 230.39 233.056 230.496 233.4 230.566C234.219 230.725 235.057 230.883 235.876 231.033C235.797 231.217 235.718 231.411 235.638 231.596H208.142C209.39 229.915 210.773 228.337 212.275 226.878C212.601 226.553 212.936 226.245 213.28 225.928C216.785 222.764 220.81 220.227 225.177 218.429C232.058 215.556 239.582 214.572 246.972 215.577Z" fill="#F2F2F2"/>
<path d="M212.725 231.596H188.243C188.109 229.638 188.121 227.673 188.278 225.717C188.808 219.661 190.646 213.793 193.666 208.516C196.687 203.239 200.816 198.678 205.771 195.149C204.502 199.664 205.154 204.153 206.476 208.659C206.291 208.721 206.106 208.774 205.939 208.844C204.598 209.34 203.368 210.094 202.317 211.062C202.026 211.335 201.718 211.731 201.867 212.109C201.999 212.426 202.396 212.532 202.74 212.602C203.568 212.761 204.397 212.919 205.216 213.069C205.877 213.201 206.538 213.324 207.199 213.456C207.508 213.509 207.816 213.57 208.124 213.632C208.169 213.738 208.195 213.834 208.239 213.931C209.79 218.2 211.482 222.504 212.275 226.878C212.472 227.976 212.607 229.084 212.681 230.196C212.707 230.663 212.725 231.129 212.725 231.596Z" fill="#F2F2F2"/>
<path d="M25.3836 16.5505C29.9598 16.5505 33.6696 12.8456 33.6696 8.27526C33.6696 3.70496 29.9598 0 25.3836 0C20.8074 0 17.0977 3.70496 17.0977 8.27526C17.0977 12.8456 20.8074 16.5505 25.3836 16.5505Z" fill="#FD6584"/>
<path d="M43.9295 4.35725C43.6952 3.59181 43.242 2.91147 42.6256 2.39989C42.0093 1.8883 41.2566 1.5678 40.4603 1.4778C40.4423 1.47526 40.4252 1.47861 40.4073 1.47746C40.3841 1.47039 40.3605 1.46495 40.3365 1.46119C36.5472 0.972087 32.1731 2.78206 30.5939 6.36984C30.2085 5.8451 29.7011 5.42194 29.1154 5.13688C28.5297 4.85183 27.8833 4.71346 27.232 4.73372C26.3923 4.78961 25.5902 5.10259 24.9349 5.63007C24.2797 6.15754 23.8031 6.87387 23.5701 7.68154C23.5453 7.7804 23.5526 7.88457 23.5911 7.97897C23.6296 8.07337 23.6971 8.15308 23.784 8.20655C24.0343 8.41838 24.3308 8.56869 24.6497 8.64542C25.3379 8.79102 26.0285 8.9244 26.7215 9.04556C28.0739 9.28192 29.4333 9.47302 30.7998 9.61884C33.5737 9.91572 36.3648 10.0211 39.1532 9.93418C40.0819 9.90527 40.9775 9.8745 41.8284 9.46516C42.4475 9.1598 42.9763 8.69887 43.3631 8.12766C43.7275 7.57863 43.967 6.95656 44.0648 6.30517C44.1627 5.65378 44.1165 4.98889 43.9295 4.35725Z" fill="#F0F0F0"/>
<path d="M26.7078 15.3909C26.4735 14.6255 26.0203 13.9452 25.404 13.4336C24.7876 12.922 24.035 12.6015 23.2386 12.5115C23.2206 12.509 23.2035 12.5123 23.1856 12.5111C23.1624 12.5041 23.1388 12.4986 23.1149 12.4949C19.3256 12.0058 14.9515 13.8157 13.3722 17.4035C12.9869 16.8788 12.4794 16.4556 11.8937 16.1705C11.308 15.8855 10.6616 15.7471 10.0103 15.7674C9.17058 15.8233 8.36847 16.1363 7.71321 16.6638C7.05796 17.1912 6.58138 17.9076 6.34837 18.7152C6.32358 18.8141 6.33096 18.9183 6.36943 19.0127C6.4079 19.1071 6.47546 19.1868 6.56233 19.2402C6.8126 19.4521 7.10908 19.6024 7.42801 19.6791C8.11617 19.8247 8.80678 19.9581 9.49983 20.0792C10.8522 20.3156 12.2117 20.5067 13.5782 20.6525C16.3521 20.9494 19.1431 21.0548 21.9315 20.9679C22.8602 20.939 23.7558 20.9082 24.6068 20.4988C25.2258 20.1934 25.7546 19.7325 26.1414 19.1613C26.5058 18.6123 26.7453 17.9902 26.8432 17.3388C26.941 16.6875 26.8948 16.0226 26.7078 15.3909Z" fill="#F0F0F0"/>
<path d="M106.419 143.832C106.209 144.14 105.658 144.505 105.443 144.807L105.672 144.113L105.594 143.952L105.106 142.977L92.6798 117.967L92.675 117.962L71.6098 75.5835V75.5786L71.1265 74.6086V74.6038L60.7013 53.6292L60.2085 52.6348C60.5793 52.6445 60.9502 52.6592 61.3212 52.6787L61.819 53.6779L72.2151 74.6038L72.2199 74.6086L72.7032 75.5786V75.5835L93.2312 116.884V116.889L93.7145 117.859V117.864L106.141 142.855L106.307 143.192L106.419 143.832Z" fill="#3F3D56"/>
<path d="M105.033 75.5835H12.0356C12.2847 75.2569 12.5382 74.9303 12.8018 74.6086H104.267C104.53 74.9303 104.784 75.2569 105.033 75.5835Z" fill="#3F3D56"/>
<path d="M116.815 116.889C116.786 117.216 116.752 117.542 116.708 117.864H92.8848V116.889H116.815Z" fill="#3F3D56"/>
<path d="M15.5743 71.3964V149.835C15.2375 149.48 14.9153 149.119 14.5981 148.758V72.4736C14.9153 72.1129 15.2375 71.7522 15.5743 71.3964Z" fill="#3F3D56"/>
<path d="M105.898 142.977H15.0864V143.951H105.898V142.977Z" fill="#3F3D56"/>
<path d="M105.819 143.832H105.931V143.672C105.897 143.727 105.859 143.781 105.819 143.832ZM105.067 75.4639C104.818 75.1374 104.564 74.8108 104.301 74.4891C99.1166 67.993 92.6041 62.6765 85.1983 58.8947C77.7924 55.1129 69.6638 52.953 61.3554 52.5591C60.9846 52.5396 60.6137 52.5249 60.2427 52.5152C59.6863 52.5006 59.1298 52.4908 58.5686 52.4908C50.4966 52.4865 42.5114 54.1537 35.1171 57.3871C27.7229 60.6206 21.0802 65.35 15.6085 71.2768C15.2718 71.6326 14.9496 71.9933 14.6324 72.3541C14.0125 73.0511 13.4138 73.7628 12.8362 74.4891C12.5727 74.8108 12.3191 75.1374 12.07 75.4639C3.82183 86.203 -0.43264 99.4712 0.0347931 112.998C0.502226 126.524 5.6625 139.468 14.6324 149.613C14.9496 149.974 15.2718 150.335 15.6085 150.691C21.5069 157.07 28.7551 162.056 36.8257 165.286C44.8964 168.515 53.5865 169.908 62.2636 169.361C70.9408 168.814 79.3868 166.342 86.987 162.125C94.5873 157.908 101.151 152.052 106.199 144.983C106.414 144.681 106.629 144.378 106.839 144.071C112.251 136.239 115.652 127.198 116.742 117.745C116.786 117.423 116.82 117.096 116.849 116.77C117.039 114.869 117.135 112.94 117.137 110.984C117.152 98.1375 112.908 85.6477 105.067 75.4639ZM115.761 117.745C114.698 126.819 111.468 135.505 106.341 143.072C106.209 143.272 106.072 143.472 105.931 143.672C105.897 143.727 105.859 143.781 105.819 143.832C105.785 143.886 105.746 143.94 105.707 143.993C100.728 151.098 94.2031 156.985 86.6218 161.212C79.0406 165.44 70.5994 167.899 61.9312 168.404C53.263 168.91 44.5927 167.449 36.5702 164.131C28.5478 160.814 21.3815 155.725 15.6085 149.248C15.2718 148.877 14.9448 148.507 14.6324 148.127C6.04997 138.028 1.22862 125.276 0.985777 112.033C0.742931 98.7893 5.09353 85.8695 13.2999 75.4639C13.5587 75.1373 13.8173 74.8107 14.0857 74.489C14.2615 74.2697 14.4419 74.0552 14.6324 73.8407C14.9448 73.4605 15.2718 73.0901 15.6085 72.7196C21.0003 66.6607 27.6168 61.812 35.0218 58.4932C42.4268 55.1744 50.4521 53.4609 58.5685 53.4657C59.2959 53.4657 60.0182 53.4803 60.7355 53.5096C61.1114 53.5193 61.4824 53.5388 61.8532 53.5583C69.7963 54.0118 77.5589 56.1061 84.6501 59.7088C91.7414 63.3115 98.0072 68.3443 103.051 74.489C103.32 74.8107 103.579 75.1373 103.837 75.4639C113.047 87.1599 117.361 101.965 115.873 116.77C115.839 117.096 115.805 117.423 115.761 117.745ZM105.819 143.832H105.931V143.672C105.897 143.727 105.859 143.781 105.819 143.832Z" fill="#CCCCCC"/>
<path d="M51.1874 33.9427C51.1874 34.2108 51.1787 34.4766 51.1613 34.7402C51.0638 36.2603 50.6792 37.7482 50.028 39.1256C50.023 39.1374 50.017 39.1483 50.012 39.1593C49.9817 39.2231 49.9506 39.287 49.9186 39.35C49.7249 39.7396 49.5101 40.1183 49.275 40.4844C48.2011 42.1652 46.7293 43.5559 44.9895 44.5337C43.2497 45.5115 41.2955 46.0463 39.2996 46.0908L39.42 53.0013L40.9891 52.1761L41.2693 52.708L39.4318 53.6744L39.6564 66.5089L39.6589 66.6804L38.4457 66.9501L38.4482 66.7778L38.8302 46.0916C37.2237 46.0686 35.6378 45.7271 34.1645 45.0869C32.6913 44.4467 31.3601 43.5207 30.2481 42.3624C30.1716 42.2835 30.0959 42.2019 30.0218 42.1213L30.0134 42.112C29.0869 41.103 28.3377 39.9451 27.7972 38.687C27.809 38.7004 27.8216 38.713 27.8334 38.7265C22.8198 26.1435 25.7367 20.3103 33.6035 23.0652C33.6456 23.0442 33.6885 23.024 33.7306 23.003C36.4821 21.6794 39.6312 21.4365 42.5536 22.3225C45.476 23.2086 47.9584 25.1588 49.5088 27.7868C49.5829 27.9111 49.6544 28.038 49.7234 28.1657C50.6865 29.9392 51.1898 31.9252 51.1874 33.9427Z" fill="#E5E5E5"/>
<path d="M65.4946 23.2395C65.3479 25.6537 64.7224 28.0147 63.6545 30.1855C61.5998 34.3385 57.9929 37.4874 53.4978 38.6621C53.4903 38.6661 53.4818 38.6678 53.4734 38.667C52.3423 38.9616 51.1814 39.1268 50.013 39.1593H49.9153C49.7933 39.1642 49.6713 39.1642 49.5493 39.1642C49.4663 39.1642 49.3833 39.1642 49.3004 39.1593C45.1153 39.0949 41.1235 37.3892 38.1867 34.4107C35.25 31.4322 33.604 27.4197 33.604 23.2395V23.064C33.6113 22.0477 33.7591 21.0373 34.0433 20.0614C34.0433 20.0565 34.0481 20.0516 34.0481 20.0467C34.5782 18.3508 35.5343 16.8187 36.8253 15.5964C40.0221 12.4378 45.0834 10.4539 49.5493 7.31479C59.3302 0.441866 66.5146 7.28068 65.4946 23.2395Z" fill="#E5E5E5"/>
<path opacity="0.2" d="M63.6542 30.1855C61.5994 34.3385 57.9926 37.4874 53.4974 38.6621C53.4899 38.6661 53.4814 38.6678 53.473 38.667C52.3449 38.9467 51.1893 39.1003 50.0272 39.1252H49.915C49.71 39.1301 49.505 39.1301 49.3 39.1252C45.1036 39.0206 41.1173 37.2701 38.2035 34.2524C35.2897 31.2348 33.6828 27.1926 33.7305 23.0006C33.7454 22.0135 33.8499 21.0297 34.0429 20.0614C34.0429 20.0565 34.0478 20.0516 34.0478 20.0468C34.5779 18.3509 35.5339 16.8188 36.8249 15.5964C36.3913 17.6619 36.3732 19.7929 36.7715 21.8655C37.1698 23.9381 37.9767 25.9109 39.1452 27.6693C40.3137 29.4277 41.8205 30.9366 43.578 32.1083C45.3356 33.28 47.3088 34.0911 49.383 34.4945C49.5343 34.5238 49.6856 34.553 49.8369 34.5774C50.2761 34.6505 50.7154 34.7041 51.1595 34.7382C53.4477 34.9237 55.749 34.6128 57.9056 33.827C60.0622 33.0412 62.0232 31.799 63.6542 30.1855Z" fill="black"/>
<path d="M50.0894 49.1005L52.4968 47.8349L52.1294 47.138L50.0732 48.219L49.9186 39.3504V39.3493L49.9149 39.1614V39.128L49.8351 34.5782L49.7232 28.166L49.6374 23.2391H49.5925L49.5086 27.7867V27.7878L49.385 34.4963L49.2996 39.125L49.2992 39.1636L49.2745 40.4843L48.7865 66.9768L48.7832 67.1517L50.4118 67.6083L50.4088 67.4318L50.0894 49.1005Z" fill="#3F3D56"/>
<path d="M108.176 80.473C98.0546 78.4475 87.9004 76.6101 77.623 75.4856C67.878 74.3409 58.0508 74.0571 48.2559 74.6375C39.4099 75.2334 30.4882 76.6308 22.1781 79.8163C15.7744 82.2711 8.94842 85.985 5.48941 92.1788C2.15508 98.1493 3.45558 105.035 7.08625 110.543C11.4547 117.171 18.2667 121.713 25.3489 125.033C33.4126 128.812 42.0375 131.262 50.6734 133.346C55.0533 134.403 59.4569 135.358 63.8609 136.308C64.7796 136.507 65.1722 135.097 64.2501 134.898C55.3691 132.982 46.4624 131.059 37.8019 128.285C29.7875 125.717 21.5859 122.428 15.0229 117.037C9.71337 112.676 4.66511 106.305 4.9785 99.0623C5.29443 91.7608 11.4285 86.6627 17.4408 83.5247C24.9545 79.6032 33.491 77.6929 41.8559 76.6946C51.4338 75.6287 61.0929 75.4975 70.6962 76.3028C83.5309 77.2782 96.1758 79.5407 108.772 82.0749" fill="black"/>
<path d="M60.6577 92.1015C64.9171 94.2277 67.5104 97.0358 67.5104 100.116C67.5104 106.751 55.4886 112.13 40.6591 112.13C34.2117 112.13 28.2966 111.112 23.668 109.418C28.5842 111.872 35.7208 113.417 43.6665 113.417C58.4959 113.417 70.5177 108.038 70.5177 101.403C70.5177 97.6528 66.6753 94.3046 60.6577 92.1015Z" fill="#F1F1F1"/>
<path d="M70.132 96.6591C74.9383 99.0583 77.8645 102.227 77.8645 105.702C77.8645 113.189 64.2993 119.259 47.5661 119.259C40.2909 119.259 33.6165 118.11 28.3936 116.198C33.941 118.967 41.9938 120.711 50.9595 120.711C67.6928 120.711 81.2579 114.642 81.2579 107.155C81.2579 102.923 76.9222 99.1451 70.132 96.6591Z" fill="#F1F1F1"/>
<path d="M57.0314 94.109C60.0323 95.607 61.8593 97.5854 61.8593 99.7554C61.8593 104.43 53.3896 108.219 42.9419 108.219C38.8715 108.272 34.8224 107.626 30.9712 106.309C34.4348 108.038 39.4627 109.126 45.0607 109.126C55.5084 109.126 63.9781 105.337 63.9781 100.662C63.978 98.02 61.2709 95.6612 57.0314 94.109Z" fill="#F1F1F1"/>
<path d="M41.0514 103.061C34.8806 103.061 31.8797 101.37 30.4488 99.9521C30.1877 99.6917 30.0099 99.3599 29.9378 98.9985C29.8657 98.6372 29.9026 98.2626 30.0438 97.9222C30.1851 97.5818 30.4243 97.2909 30.7311 97.0864C31.038 96.8819 31.3988 96.7729 31.7677 96.7733H53.2955C53.5886 96.7731 53.8745 96.8642 54.1133 97.0338C54.3521 97.2035 54.5321 97.4433 54.6281 97.7198C54.7241 97.9964 54.7313 98.2959 54.6489 98.5768C54.5664 98.8577 54.3983 99.1059 54.168 99.2869C51.975 101.009 47.9194 103.061 41.0514 103.061Z" fill="#3F3D56"/>
<path d="M45.5218 81.4243C43.8435 80.1509 41.737 79.5755 39.6435 79.8184C43.3602 80.7349 40.4272 85.8648 43.812 91.185C45.6566 94.0843 42.0692 95.5057 38.6519 95.8949C40.4809 96.3358 42.4062 96.1344 44.104 95.3245C45.8018 94.5146 47.1687 93.1456 47.9748 91.4477C48.7809 89.7497 48.9771 87.8264 48.5303 86.001C48.0836 84.1756 47.0212 82.5594 45.5218 81.4243Z" fill="#3F3D56"/>
<path d="M41.7121 78.75H40.9194V97.593H41.7121V78.75Z" fill="#3F3D56"/>
<path d="M117.992 84.0385C115.887 82.5578 113.51 81.5058 110.998 80.9424C108.485 80.3791 105.887 80.3154 103.35 80.7551C100.813 81.1949 98.3872 82.1293 96.2119 83.5052C94.0365 84.881 92.1537 86.6713 90.6712 88.7739C84.436 97.6162 78.1795 120.803 82.596 134.235C95.7692 120.339 116.007 118.895 122.734 111.324C129.921 103.235 126.846 90.2656 117.992 84.0385Z" fill="#FF4F00"/>
<path d="M106.436 104.061C109.967 104.061 112.83 101.202 112.83 97.675C112.83 94.1479 109.967 91.2886 106.436 91.2886C102.904 91.2886 100.041 94.1479 100.041 97.675C100.041 101.202 102.904 104.061 106.436 104.061Z" fill="white"/>
<path d="M77.1903 141.191C79.5035 141.191 81.3787 139.318 81.3787 137.008C81.3787 134.697 79.5035 132.825 77.1903 132.825C74.8772 132.825 73.002 134.697 73.002 137.008C73.002 139.318 74.8772 141.191 77.1903 141.191Z" fill="#FF4F00"/>
<path opacity="0.2" d="M113.277 96.2014C113.701 96.9257 113.977 97.7261 114.091 98.5571C114.204 99.388 114.153 100.233 113.94 101.044C113.726 101.855 113.355 102.617 112.847 103.285C112.339 103.952 111.705 104.514 110.979 104.937C110.254 105.359 109.453 105.636 108.621 105.749C107.789 105.863 106.942 105.811 106.13 105.598C105.318 105.385 104.556 105.014 103.887 104.507C103.218 104 102.656 103.366 102.233 102.642C103.374 103.642 104.835 104.203 106.353 104.226C107.871 104.249 109.348 103.732 110.519 102.766C111.69 101.801 112.479 100.451 112.745 98.9582C113.01 97.4651 112.735 95.9264 111.968 94.6175C112.487 95.0715 112.929 95.6064 113.277 96.2014Z" fill="#231F20"/>
<path opacity="0.2" d="M122.746 111.354C116.019 118.925 95.7812 120.369 82.608 134.266C82.1968 132.995 81.8803 131.695 81.6611 130.378C94.8278 117.744 113.939 116.148 120.438 108.833C126.255 102.286 125.349 92.5444 120.1 85.7659C127.299 92.431 129.332 103.941 122.746 111.354Z" fill="#231F20"/>
<path d="M191.706 226.875H186.933L184.662 208.488H191.707L191.706 226.875Z" fill="#FFB6B6"/>
<path d="M192.923 231.497L177.532 231.496V231.302C177.532 229.715 178.164 228.193 179.287 227.071C180.41 225.949 181.934 225.319 183.523 225.319H183.523L186.335 223.189L191.58 225.319L192.924 225.319L192.923 231.497Z" fill="#2F2E41"/>
<path d="M173.209 223.871L168.552 224.921L162.282 207.485L169.154 205.935L173.209 223.871Z" fill="#FFB6B6"/>
<path d="M175.415 228.111L160.402 231.497L160.359 231.307C160.009 229.759 160.289 228.136 161.138 226.794C161.986 225.453 163.333 224.503 164.883 224.153L164.883 224.153L167.156 221.457L172.742 222.381L174.053 222.085L175.415 228.111Z" fill="#2F2E41"/>
<path d="M197.752 114.463C199.99 121.204 199.753 128.521 197.214 136.375L196.128 180.591C197.923 182.563 199.049 190.605 196.284 196.364C192.593 204.054 195.136 214.688 192.527 219.79H184.958L183.098 199.019L181.46 196.677L181.211 177.943C180.206 175.566 179.041 173.208 181.085 170.455L181.031 167.2L180.74 149.854L169.326 166.524C169.001 170.297 167.07 172.274 164.514 173.551L168.049 189.133C174.232 194.419 172.72 202.598 172.822 210.17L174.849 219.106L165.534 219.937L161.423 207.82L156.801 200.353L148.763 170.5L154.369 157.507L156.66 152.196L169.455 122.538L197.752 114.463Z" fill="#2F2E41"/>
<path d="M118.673 90.4222C119.046 90.7943 119.497 91.0801 119.993 91.2596C120.488 91.439 121.017 91.5077 121.543 91.4609C122.068 91.414 122.576 91.2527 123.032 90.9883C123.488 90.7239 123.881 90.3629 124.182 89.9307L136.522 93.3948L134.496 87.0576L123.089 84.7396C122.328 84.2823 121.426 84.1196 120.553 84.2823C119.681 84.4449 118.898 84.9217 118.354 85.6221C117.81 86.3226 117.541 87.1981 117.6 88.0828C117.659 88.9675 118.041 89.7999 118.673 90.4222Z" fill="#FFB8B8"/>
<path d="M128.765 85.3039L140.81 85.2157C144.058 84.3089 147.482 84.2314 150.768 84.9904L151.407 85.1381L156.433 84.5688C159.43 78.5865 164.99 73.178 172.454 68.1955C173.58 67.2895 174.885 66.6319 176.284 66.2658C177.682 65.8998 179.142 65.8337 180.568 66.072C181.994 66.3102 183.353 66.8473 184.556 67.648C185.759 68.4487 186.779 69.4947 187.548 70.7173C188.937 72.9306 189.425 75.5902 188.914 78.1517C188.403 80.7132 186.931 82.9827 184.8 84.4956L162.055 97.851C160.059 99.0228 157.792 99.6556 155.477 99.687L155.422 99.7156L142.447 94.8607L135.773 94.0124L126.723 91.3855L128.765 85.3039Z" fill="#FF4F00"/>
<path d="M177.087 57.2342C183.363 57.2342 188.451 52.1531 188.451 45.8853C188.451 39.6175 183.363 34.5365 177.087 34.5365C170.811 34.5365 165.724 39.6175 165.724 45.8853C165.724 52.1531 170.811 57.2342 177.087 57.2342Z" fill="#FFB8B8"/>
<path d="M187.699 53.083C188.541 51.8827 189.139 49.9605 189.492 48.5555C189.964 46.7056 190.041 44.7772 189.719 42.8954C189.398 41.0135 188.683 39.2202 187.623 37.6317C187.232 36.9843 186.671 36.4557 186.001 36.1031C185.314 35.7965 184.407 35.8695 183.928 36.4495C183.927 35.9406 183.821 35.4374 183.617 34.9709C183.413 34.5045 183.116 34.0847 182.743 33.7374C181.992 33.0468 181.09 32.5405 180.109 32.2586C178.219 31.6829 176.208 31.6291 174.29 32.1028C172.372 32.5765 170.618 33.56 169.214 34.9489C168.666 35.5062 168.861 32.7217 168.252 33.2121C167.662 33.7391 166.889 34.0145 166.099 33.9794C165.321 33.8967 163.89 36.6653 163.882 35.884C163.063 36.703 162.703 40.1571 162.959 41.2856C163.215 42.4141 167.023 41.9154 168.115 42.3021C168.839 42.5583 169.624 42.567 170.373 42.7338C171.705 43.0775 172.865 43.8963 173.634 45.0356C174.402 46.1749 174.727 47.5559 174.546 48.9178C175.025 48.2742 175.605 47.7122 176.264 47.2534C176.596 47.0268 176.977 46.8827 177.376 46.833C177.775 46.7833 178.18 46.8294 178.557 46.9675C178.898 47.15 179.197 47.4002 179.438 47.7026C179.678 48.005 179.854 48.3533 179.955 48.7261C180.203 49.4558 180.299 50.2304 180.551 50.9585C181.292 53.0949 181.675 55.3376 183.741 55.8441C185.371 56.2439 186.549 54.7217 187.699 53.083Z" fill="#2F2E41"/>
<path d="M198.721 112.214L197.474 109.721C195.946 100.271 194.437 91.457 196.487 83.5285C196.616 76.6072 194.474 70.105 188.527 66.5542L185.843 64.9517L184.485 61.5112L171.979 61.8163L171.942 66.3263L167.463 73.4608V73.4902L167.743 112.313L168.98 116.319L167.114 120.98L168.104 123.954L192.759 120.017L195.626 119.558C195.957 119.452 196.276 119.313 196.579 119.142C197.608 118.572 198.414 117.672 198.869 116.588C198.894 116.525 198.916 116.466 198.938 116.404C199.132 115.898 199.244 115.364 199.27 114.823C199.315 113.921 199.126 113.022 198.721 112.214Z" fill="#FF4F00"/>
<path opacity="0.2" d="M199.27 114.823C199.244 115.364 199.132 115.898 198.939 116.404L196.579 119.142C196.277 119.313 195.957 119.452 195.626 119.558L192.759 120.017L196.907 112.228L187.791 92.295L199.27 114.823Z" fill="black"/>
<path d="M209.192 137.879C208.734 137.567 208.351 137.159 208.068 136.683C207.785 136.207 207.61 135.675 207.556 135.125C207.501 134.574 207.568 134.018 207.752 133.496C207.936 132.974 208.232 132.499 208.62 132.104L202.619 120.063L209.566 120.908L214.199 132.212C214.821 132.907 215.166 133.805 215.169 134.736C215.172 135.668 214.833 136.568 214.216 137.267C213.598 137.965 212.746 138.413 211.82 138.526C210.894 138.639 209.959 138.408 209.192 137.879Z" fill="#FFB8B8"/>
<path d="M184.867 96.4504L189.419 95.8225C189.419 95.8225 189.858 102.677 192.036 103.715C194.213 104.754 193.479 104.925 193.736 106.025C193.992 107.124 195.154 108.786 196.879 109.544C198.604 110.301 206.449 129.354 206.449 129.354L213.055 127.815C212.444 126.161 212.042 124.438 211.857 122.684C211.625 120.033 208.617 113.777 207.626 112.848C206.635 111.92 207.027 110.283 206.513 108.084C206 105.884 206.356 107.924 205.5 104.258C204.644 100.593 195.023 78.6266 194.619 75.2423C194.216 71.8581 189.494 69.866 189.494 69.866L185.824 70.7208L184.867 96.4504Z" fill="#FF4F00"/>
<path d="M109.269 232H252.541C252.663 232 252.78 231.952 252.866 231.866C252.952 231.78 253 231.663 253 231.542C253 231.42 252.952 231.303 252.866 231.218C252.78 231.132 252.663 231.083 252.541 231.083H109.269C109.147 231.083 109.031 231.132 108.944 231.218C108.858 231.303 108.81 231.42 108.81 231.542C108.81 231.663 108.858 231.78 108.944 231.866C109.031 231.952 109.147 232 109.269 232Z" fill="#CCCCCC"/>
</g>
<defs>
<clipPath id="clip0_109_416">
<rect width="253" height="232" fill="white"/>
</clipPath>
</defs>
</svg>
